<svg xmlns="http://www.w3.org/2000/svg" xmlns:xlink="http://www.w3.org/1999/xlink" viewBox="0 0 40 40">
  <defs>
    <style>
      .cls-1 {
        fill: #fff;
      }

      .cls-2 {
        clip-path: url(#clip-path);
      }
    </style>
    <clipPath id="clip-path">
      <rect id="矩形_31" data-name="矩形 31" class="cls-1" width="40" height="40" transform="translate(429 467)"/>
    </clipPath>
  </defs>
  <g id="符号_6_3" data-name="符号 6 – 3" transform="translate(-516 -252)">
    <g id="蒙版组_1" data-name="蒙版组 1" class="cls-2" transform="translate(87 -215)">
      <g id="ios-people" transform="translate(426.194 464.185)">
        <path id="路径_3" data-name="路径 3" class="cls-1" d="M31.1,29.817c-1-.356-2.628-.374-3.35-.65a4.732,4.732,0,0,1-1.55-.722,9.578,9.578,0,0,1-.258-2.539,4.1,4.1,0,0,0,.882-1.247,13.861,13.861,0,0,0,.428-2.45s.588.249.82-.927c.2-1.016.57-1.55.472-2.3s-.517-.57-.517-.57.517-.757.517-3.332c0-2.655-2-5.265-5.755-5.265s-5.764,2.619-5.764,5.265c0,2.575.508,3.332.508,3.332s-.419-.178-.517.57.267,1.283.472,2.3c.232,1.185.82.927.82.927a14,14,0,0,0,.428,2.45,4.1,4.1,0,0,0,.882,1.247,9.578,9.578,0,0,1-.258,2.539,4.554,4.554,0,0,1-1.55.713c-.713.276-2.343.312-3.35.668a6.287,6.287,0,0,0-4.08,5.987H35.171a6.275,6.275,0,0,0-4.071-6Z"/>
        <path id="路径_4" data-name="路径 4" class="cls-1" d="M12.472,25.479a6.048,6.048,0,0,0,2.976-.829c-1.381-2.094-.633-4.535-.918-6.815A3.759,3.759,0,0,0,10.37,14.2h-.036a3.77,3.77,0,0,0-4.125,3.635c-.285,2.272.508,4.989-.909,6.815.846.766,2.984.739,2.984.739a4.512,4.512,0,0,1-.089,1.5,2.25,2.25,0,0,1-1.069.49,20.67,20.67,0,0,0-2.307.641,3.751,3.751,0,0,0-2.013,3.314H9.96a6.4,6.4,0,0,1,2.851-2.655,5.982,5.982,0,0,1,2.2-.463s.339-.535-.775-.739a7.594,7.594,0,0,1-1.71-.6C12.356,26.682,12.472,25.479,12.472,25.479Zm20.668,0a6.048,6.048,0,0,1-2.976-.829c1.381-2.094.633-4.535.918-6.815a3.759,3.759,0,0,1,4.16-3.635h.036A3.77,3.77,0,0,1,39.4,17.835c.285,2.272-.508,4.989.909,6.815-.846.766-2.984.739-2.984.739a4.512,4.512,0,0,0,.089,1.5,2.25,2.25,0,0,0,1.069.49,20.67,20.67,0,0,1,2.307.641,3.751,3.751,0,0,1,2.013,3.314H35.653A6.4,6.4,0,0,0,32.8,28.677a5.982,5.982,0,0,0-2.2-.463s-.339-.535.775-.739a7.594,7.594,0,0,0,1.71-.6c.169-.2.053-1.4.053-1.4Z"/>
      </g>
    </g>
  </g>
</svg>
