<svg xmlns="http://www.w3.org/2000/svg" xmlns:xlink="http://www.w3.org/1999/xlink" viewBox="0 0 14 14">
  <defs>
    <style>
      .cls-1, .cls-3 {
        fill: #8f9cb7;
      }

      .cls-1 {
        stroke: #8f9cb7;
      }

      .cls-2 {
        clip-path: url(#clip-path);
      }
    </style>
    <clipPath id="clip-path">
      <rect id="矩形_38" data-name="矩形 38" class="cls-1" width="14" height="14"/>
    </clipPath>
  </defs>
  <g id="蒙版组_4" data-name="蒙版组 4" class="cls-2" transform="translate(0)">
    <g id="ios-information-circle-outline">
      <path id="路径_7" data-name="路径 7" class="cls-3" d="M9.054,6.527a.694.694,0,1,1,.69.673.674.674,0,0,1-.69-.673Zm.047,1.2h1.286v4.85H9.1V7.729Z" transform="translate(-2.747 -2.348)"/>
      <path id="路径_8" data-name="路径 8" class="cls-3" d="M8.846,2.788A6.055,6.055,0,1,1,4.562,4.562,6.018,6.018,0,0,1,8.846,2.788m0-.942a7,7,0,1,0,7,7A7,7,0,0,0,8.846,1.846Z" transform="translate(-1.846 -1.846)"/>
    </g>
  </g>
</svg>
