<svg xmlns="http://www.w3.org/2000/svg" xmlns:xlink="http://www.w3.org/1999/xlink" viewBox="0 0 40 40">
  <defs>
    <style>
      .cls-1 {
        fill: #fff;
      }

      .cls-2 {
        clip-path: url(#clip-path);
      }
    </style>
    <clipPath id="clip-path">
      <rect id="矩形_32" data-name="矩形 32" class="cls-1" width="40" height="40" transform="translate(353 428)"/>
    </clipPath>
  </defs>
  <g id="符号_5_4" data-name="符号 5 – 4" transform="translate(-353 -252)">
    <g id="蒙版组_2" data-name="蒙版组 2" class="cls-2" transform="translate(0 -176)">
      <g id="ios-analytics" transform="translate(348.385 423.385)">
        <path id="路径_5" data-name="路径 5" class="cls-1" d="M24.615,4.615a20,20,0,1,0,20,20A20,20,0,0,0,24.615,4.615Zm-17.308,20a17.311,17.311,0,0,1,34.606-.731A5.854,5.854,0,0,0,37.7,21.577c-2.644,0-4.01,2.471-4.9,4.106-.135.24-.26.471-.375.673-1.1,1.846-2.625,2.885-4.087,2.779-1.288-.087-2.385-1.077-3.1-2.769-.885-2.125-2.8-4.4-5.087-4.731-1.087-.154-2.7.077-4.3,2.058-.308.385-.663.9-1.067,1.5-1,1.49-2.519,3.731-3.663,3.923a4.394,4.394,0,0,1-3.5-1.183A17.245,17.245,0,0,1,7.308,24.615Z"/>
      </g>
    </g>
  </g>
</svg>
